
<svg version="1.0" xmlns="http://www.w3.org/2000/svg"
 width="30" height="30" viewBox="0 0 512.000000 512.000000"
 preserveAspectRatio="xMidYMid meet">
<g transform="translate(0.000000,512.000000) scale(0.100000,-0.100000)"
fill="#000000" stroke="none">
<path d="M2039 5104 c-8 -9 -15 -52 -17 -106 l-5 -89 -36 5 c-20 3 -111 11
-204 17 -187 13 -212 8 -248 -43 -14 -18 -21 -44 -21 -74 0 -49 6 -60 149
-319 l90 -160 -46 -13 c-251 -69 -502 -180 -681 -301 -524 -356 -866 -913
-951 -1551 -19 -144 -17 -462 4 -600 84 -547 352 -1026 770 -1377 311 -260
708 -432 1117 -483 127 -15 412 -12 542 6 628 87 1151 414 1506 940 137 203
248 465 306 721 l21 91 190 -105 c106 -59 206 -108 227 -110 26 -4 47 1 76 17
70 39 74 62 56 288 -7 97 -14 183 -14 190 0 8 23 12 80 12 91 0 120 17 120 68
0 49 -26 62 -123 62 -73 0 -87 3 -87 16 0 66 -25 273 -41 335 -21 86 -37 128
-84 219 -25 50 -38 97 -55 195 -45 270 -94 364 -345 665 l-121 145 23 55 c27
62 26 126 -3 182 -21 41 -204 229 -262 270 -60 42 -140 49 -207 19 l-48 -21
-46 38 c-281 235 -344 280 -463 337 -102 48 -200 76 -356 100 -69 11 -126 27
-176 50 -114 53 -228 82 -379 96 l-137 13 0 86 c0 106 -13 130 -69 130 -23 0
-44 -6 -52 -16z m-214 -392 c67 -122 81 -140 128 -163 65 -34 107 -24 336 80
l204 93 69 -27 c94 -37 202 -110 296 -199 l78 -75 -14 -118 c-9 -65 -16 -119
-17 -121 -1 -1 -45 16 -98 38 -102 43 -130 43 -125 2 3 -22 17 -31 107 -69 58
-24 112 -49 120 -56 9 -8 66 -42 126 -77 467 -268 817 -648 1036 -1123 55
-121 78 -148 105 -126 20 16 18 36 -11 97 -14 30 -25 57 -25 61 0 10 217 43
239 36 19 -6 132 -127 185 -198 31 -43 106 -197 106 -220 0 -8 -43 -108 -95
-222 -137 -299 -134 -322 60 -431 80 -44 111 -67 116 -85 9 -31 11 -119 3
-119 -3 0 -151 80 -328 177 l-321 177 -166 165 c-192 192 -235 252 -323 453
-76 172 -115 250 -163 326 -135 213 -318 394 -527 521 -56 35 -338 169 -424
202 -72 28 -180 115 -333 268 l-166 166 -179 324 c-99 178 -180 327 -182 330
-1 3 29 5 67 3 l68 -4 48 -86z m166 68 l29 0 0 -85 c0 -76 -2 -85 -18 -85 -25
0 -51 31 -97 114 l-38 69 48 -6 c26 -4 61 -7 76 -7z m1114 -236 c33 -14 90
-44 128 -67 64 -40 345 -266 346 -277 1 -4 -64 -41 -144 -84 l-145 -78 -73 45
c-39 24 -96 57 -125 73 -41 23 -52 33 -48 49 13 59 28 234 22 258 -4 16 -26
49 -49 74 l-42 46 35 -8 c19 -4 62 -18 95 -31z m-1241 -419 c40 -69 79 -114
220 -253 194 -191 256 -235 441 -317 316 -139 439 -215 593 -365 153 -151 241
-284 347 -525 129 -292 167 -347 419 -593 l156 -153 -11 -67 c-24 -144 -70
-298 -126 -422 -40 -87 -41 -125 -3 -125 21 0 31 11 62 75 60 124 112 295 142
472 l7 38 49 -25 c28 -14 50 -32 50 -40 0 -26 -39 -186 -64 -265 -272 -854
-1051 -1430 -1936 -1430 -424 0 -854 146 -1200 409 -639 485 -945 1301 -778
2081 150 707 643 1271 1318 1513 67 24 232 72 260 76 3 0 27 -37 54 -84z
m2133 -68 c80 -80 123 -130 123 -144 0 -24 -220 -435 -230 -431 -4 2 -41 44
-82 93 -83 99 -231 244 -327 320 -36 28 -58 52 -53 57 25 25 400 228 422 228
18 0 56 -32 147 -123z m415 -750 c47 -69 84 -146 109 -229 l18 -60 -54 51
c-63 60 -71 61 -237 33 l-106 -19 -46 81 c-25 45 -59 101 -76 126 -16 25 -30
51 -30 58 0 8 34 76 76 153 l75 138 116 -136 c63 -75 133 -163 155 -196z m299
-919 c0 -13 4 -62 7 -110 l7 -88 -63 0 c-35 0 -62 4 -60 9 23 60 95 211 101
211 4 0 7 -10 8 -22z m31 -402 c2 -41 1 -73 -2 -71 -143 78 -190 113 -190 139
0 3 42 6 94 6 l94 0 4 -74z"/>
<path d="M2005 3354 c-279 -52 -525 -200 -703 -421 -372 -462 -345 -1133 61
-1569 220 -236 521 -365 852 -365 450 0 838 238 1044 641 319 624 31 1397
-614 1649 -55 22 -134 47 -175 56 -106 24 -361 29 -465 9z m334 -119 c140 -12
307 -73 443 -161 87 -57 239 -206 291 -286 126 -193 180 -372 180 -598 0 -188
-29 -313 -112 -479 -100 -202 -295 -390 -498 -482 -321 -146 -704 -116 -996
78 -264 176 -430 451 -468 778 -58 495 270 982 756 1120 89 25 242 45 300 39
17 -2 63 -6 104 -9z"/>
<path d="M2031 3045 c-204 -45 -403 -178 -521 -351 -208 -301 -207 -713 1
-1021 54 -80 188 -204 272 -252 405 -229 901 -110 1151 277 96 149 139 298
139 492 0 129 -14 213 -53 318 -101 272 -340 476 -626 537 -86 18 -278 18
-363 0z m421 -92 c335 -116 549 -416 549 -769 0 -236 -86 -432 -260 -597 -164
-154 -386 -229 -606 -205 -101 11 -171 31 -260 75 -346 171 -520 559 -420 942
61 236 246 445 476 538 104 42 173 53 309 49 108 -2 137 -7 212 -33z"/>
<path d="M1993 2756 c-37 -32 -38 -96 -1 -133 61 -61 153 -31 165 54 5 37 2
45 -25 73 -40 39 -97 42 -139 6z"/>
<path d="M2613 2589 c-42 -12 -63 -44 -63 -96 0 -91 95 -129 161 -64 39 40 40
89 2 130 -33 35 -57 42 -100 30z"/>
<path d="M2116 2440 c-63 -25 -122 -81 -152 -145 -66 -140 9 -317 159 -372 18
-6 59 -12 92 -12 141 -2 259 106 272 249 19 201 -184 353 -371 280z m172 -120
c85 -52 98 -177 24 -243 -96 -87 -242 -17 -242 115 0 113 124 185 218 128z"/>
<path d="M1629 2261 c-63 -63 -20 -171 68 -171 61 1 93 38 93 108 0 86 -99
125 -161 63z"/>
<path d="M2574 1946 c-27 -27 -34 -42 -34 -74 0 -33 6 -45 31 -66 43 -36 91
-35 130 3 48 49 38 125 -21 156 -44 23 -69 18 -106 -19z"/>
<path d="M1976 1754 c-38 -38 -36 -95 4 -135 26 -26 36 -30 76 -27 59 4 85 34
86 98 0 36 -5 48 -26 67 -39 33 -104 32 -140 -3z"/>
<path d="M347 2482 c-53 -58 22 -140 93 -102 27 14 35 65 16 95 -21 31 -84 35
-109 7z"/>
<path d="M3846 1953 c-2 -10 -12 -56 -21 -103 -9 -47 -30 -131 -47 -187 -34
-112 -33 -136 9 -131 26 3 31 11 60 99 36 109 76 301 67 324 -9 21 -61 20 -68
-2z"/>
<path d="M3711 1097 c-59 -82 -73 -119 -50 -132 24 -16 57 9 109 85 62 89 70
123 29 128 -23 3 -35 -8 -88 -81z"/>
</g>
</svg>
