
<svg version="1.0" xmlns="http://www.w3.org/2000/svg" 
width="30" height="30" viewBox="0 0 866.000000 980.000000"
 preserveAspectRatio="xMidYMid meet">
<g transform="translate(0.000000,980.000000) scale(0.100000,-0.100000)"
fill="#000000" stroke="none">
<path d="M4190 9794 c-320 -60 -367 -79 -1240 -509 -699 -344 -810 -396 -1100
-510 -491 -194 -941 -333 -1578 -486 l-262 -64 0 -310 c0 -1280 245 -2610 686
-3722 432 -1090 1027 -2024 1779 -2792 571 -583 1218 -1076 1783 -1360 l83
-42 162 97 c413 246 766 507 1135 842 171 155 504 486 654 649 984 1075 1683
2394 2053 3873 196 781 305 1668 305 2475 l0 291 -242 58 c-521 125 -921 243
-1328 389 -430 155 -668 262 -1465 659 -706 351 -780 383 -1001 433 -90 21
-153 28 -259 30 -77 2 -151 2 -165 -1z m422 -428 c94 -27 180 -67 748 -346
300 -147 615 -300 700 -340 714 -334 1287 -541 1950 -704 102 -26 200 -53 219
-62 l34 -15 -7 -172 c-37 -944 -148 -1677 -370 -2461 -255 -898 -597 -1644
-1102 -2407 -492 -743 -1010 -1315 -1691 -1866 -237 -193 -730 -543 -763 -543
-13 0 -206 116 -365 218 -225 145 -471 331 -700 527 -1231 1059 -2120 2526
-2545 4200 -190 747 -282 1424 -316 2322 l-7 182 34 15 c19 9 117 36 219 61
861 213 1448 446 2735 1087 413 205 549 267 669 303 77 24 91 25 291 21 154
-3 225 -8 267 -20z"/>
</g>
</svg>
