
<svg version="1.0" xmlns="http://www.w3.org/2000/svg"
 width="30" height="30" viewBox="0 0 225.000000 225.000000"
 preserveAspectRatio="xMidYMid meet">
<g transform="translate(0.000000,225.000000) scale(0.100000,-0.100000)"
fill="#000000" stroke="none">
<path d="M1250 2159 c-98 -49 -148 -131 -149 -245 -2 -136 76 -242 204 -276
43 -12 45 -14 45 -50 l0 -38 -186 0 -186 0 -29 -29 c-16 -16 -29 -39 -29 -50
0 -19 -7 -20 -166 -23 l-166 -3 -29 -33 c-25 -27 -29 -41 -29 -87 l0 -55 -111
0 -112 0 -32 -35 c-33 -34 -34 -34 -131 -37 -98 -3 -99 -3 -99 -28 0 -25 1
-25 99 -28 97 -3 98 -3 131 -37 l32 -35 112 0 111 0 0 -55 c0 -46 4 -60 29
-87 l29 -33 166 -3 c155 -3 166 -5 166 -22 0 -37 44 -73 95 -79 46 -6 49 -8
58 -41 6 -22 5 -55 -3 -92 -6 -32 -8 -63 -5 -68 3 -6 42 -10 85 -10 l79 0 10
-37 c49 -181 129 -455 134 -460 8 -7 415 -5 428 3 16 9 11 30 -66 305 -41 148
-75 278 -75 289 0 31 27 78 53 92 12 6 65 15 118 18 116 9 185 36 259 106 136
127 159 336 54 491 -42 61 -83 94 -162 131 -56 27 -62 27 -307 32 l-250 5 -3
36 c-3 34 -1 36 36 47 90 27 169 108 193 196 15 56 6 153 -19 203 -72 140
-238 193 -382 122z m110 -54 c0 -8 9 -15 20 -15 11 0 20 7 20 15 0 19 21 19
64 1 40 -17 52 -32 37 -50 -7 -9 -7 -16 1 -24 8 -8 15 -8 24 -1 18 15 33 3 50
-37 18 -43 18 -64 -1 -64 -8 0 -15 -9 -15 -20 0 -11 7 -20 15 -20 19 0 19 -21
1 -64 -16 -39 -33 -53 -49 -37 -16 16 -41 -7 -26 -25 25 -30 -40 -64 -124 -64
-73 0 -133 32 -174 94 -29 42 -33 56 -33 115 0 79 27 136 59 126 24 -7 37 11
22 29 -9 11 -2 18 31 35 51 25 78 27 78 6z m600 -646 c70 -33 126 -89 159
-159 34 -73 36 -182 4 -252 -30 -66 -96 -133 -162 -165 l-56 -28 -290 -3
c-249 -2 -292 -5 -302 -18 -6 -9 -9 -22 -6 -30 4 -11 37 -14 164 -14 87 0 159
-2 159 -4 0 -2 -7 -17 -15 -32 -26 -50 -17 -112 54 -361 l68 -243 -161 0 -161
0 -94 338 c-52 185 -98 343 -104 350 -6 8 -42 12 -111 12 -66 0 -106 4 -114
12 -17 17 -17 599 0 616 10 10 115 12 463 10 l450 -3 55 -26z m-1320 -108 c0
-16 6 -31 13 -34 21 -8 47 13 47 38 l0 25 110 0 110 0 0 -210 0 -210 -110 0
-109 0 -3 153 -3 152 -25 0 -25 0 -3 -152 c-2 -125 -5 -153 -17 -153 -28 0
-35 39 -35 210 0 99 4 179 10 191 16 30 40 24 40 -10z m-110 -181 l0 -40 -94
0 c-73 0 -98 4 -110 16 -9 8 -16 19 -16 24 0 5 7 16 16 24 12 12 37 16 110 16
l94 0 0 -40z"/>
<path d="M1743 1303 c-18 -7 -16 -50 3 -57 9 -3 55 -6 104 -6 99 0 129 14 110
51 -10 17 -22 19 -108 18 -53 0 -103 -3 -109 -6z"/>
<path d="M1664 1185 c-4 -8 -4 -22 0 -30 4 -13 34 -15 179 -15 143 0 177 3
187 15 10 12 10 18 0 30 -10 12 -44 15 -187 15 -145 0 -175 -2 -179 -15z"/>
<path d="M1743 1093 c-18 -7 -16 -50 3 -57 9 -3 55 -6 104 -6 67 0 92 4 104
16 9 8 16 17 16 19 0 2 -7 11 -16 19 -12 12 -36 16 -107 15 -51 0 -98 -3 -104
-6z"/>
</g>
</svg>
