
<svg version="1.0" xmlns="http://www.w3.org/2000/svg"
 width="30" height="30" viewBox="0 0 512.000000 512.000000"
 preserveAspectRatio="xMidYMid meet">
<metadata>
Created by potrace 1.15, written by Peter Selinger 2001-2017
</metadata>
<g transform="translate(0.000000,512.000000) scale(0.100000,-0.100000)"
 stroke="none">
<path d="M2255 5108 c-105 -12 -298 -51 -409 -83 -994 -288 -1724 -1155 -1835
-2177 -14 -125 -14 -451 0 -576 128 -1181 1080 -2133 2261 -2261 125 -14 451
-14 576 0 1181 128 2133 1080 2261 2261 14 125 14 451 0 576 -128 1181 -1080
2133 -2261 2261 -115 13 -479 12 -593 -1z m145 -473 l0 -155 160 0 160 0 0
154 0 154 43 -4 c690 -74 1281 -430 1658 -998 200 -301 322 -648 363 -1023 l4
-43 -154 0 -154 0 0 -165 0 -165 153 0 153 0 -8 -77 c-4 -43 -19 -134 -34
-203 -185 -905 -928 -1612 -1839 -1754 -55 -8 -119 -17 -142 -20 l-43 -4 0
154 0 154 -160 0 -160 0 0 -154 0 -154 -42 4 c-691 74 -1283 430 -1659 998
-200 301 -322 648 -363 1024 l-4 42 154 0 154 0 0 160 0 160 -154 0 -154 0 4
43 c63 590 334 1113 769 1485 344 294 767 480 1205 531 41 5 78 9 83 10 4 0 7
-69 7 -154z"/>
<path d="M1413 3360 c-80 -19 -123 -75 -123 -160 0 -67 24 -111 77 -143 21
-12 224 -130 453 -262 l415 -240 7 -53 c14 -96 78 -185 170 -234 37 -20 58
-23 148 -23 120 0 160 15 230 85 67 67 84 111 86 219 l2 94 424 244 c232 135
429 252 436 261 14 19 16 76 2 102 -12 23 -62 40 -92 32 -13 -4 -210 -115
-438 -246 -409 -237 -414 -239 -439 -223 -86 54 -107 61 -192 65 -70 4 -94 1
-130 -15 l-45 -20 -379 219 c-561 324 -542 315 -612 298z"/>
</g>
</svg>
