
<svg version="1.0" xmlns="http://www.w3.org/2000/svg"
 width="30" height="30" viewBox="0 0 1024.000000 1024.000000"
 preserveAspectRatio="xMidYMid meet">
<g transform="translate(0.000000,1024.000000) scale(0.100000,-0.100000)"
fill="#000000" stroke="none">
<path d="M4600 10230 c-183 -16 -305 -32 -515 -70 -128 -23 -332 -73 -475
-115 -30 -9 -68 -20 -85 -24 -82 -23 -354 -125 -490 -183 -155 -67 -373 -178
-550 -280 -61 -35 -307 -191 -328 -208 -7 -5 -70 -53 -142 -106 -71 -54 -132
-100 -135 -103 -3 -3 -27 -24 -55 -46 -187 -149 -510 -472 -660 -660 -22 -27
-42 -52 -46 -55 -3 -3 -18 -23 -34 -45 -17 -22 -32 -42 -36 -45 -35 -31 -298
-421 -370 -550 -14 -25 -35 -61 -46 -80 -11 -19 -43 -82 -72 -140 -29 -58 -63
-125 -76 -150 -13 -25 -35 -74 -50 -110 -15 -36 -35 -83 -45 -105 -47 -103
-173 -465 -199 -570 -5 -22 -23 -94 -40 -160 -17 -66 -38 -158 -47 -205 -9
-47 -20 -107 -26 -135 -58 -312 -86 -759 -69 -1108 10 -200 31 -443 45 -522 3
-16 10 -61 16 -100 6 -38 15 -88 20 -110 5 -22 16 -78 25 -125 10 -47 23 -107
30 -135 8 -27 23 -86 35 -130 38 -145 111 -368 160 -490 4 -11 18 -45 30 -75
12 -30 33 -79 46 -108 13 -29 24 -55 24 -58 0 -13 143 -296 201 -400 34 -60
67 -119 73 -131 6 -13 14 -23 19 -23 4 0 7 -5 7 -11 0 -26 314 -477 361 -519
3 -3 12 -14 20 -26 107 -157 548 -598 757 -758 15 -11 29 -23 32 -26 30 -34
516 -370 535 -370 3 0 24 -11 46 -26 146 -92 416 -224 684 -334 11 -4 36 -15
55 -23 48 -20 297 -104 368 -123 31 -9 71 -19 87 -24 185 -51 205 -56 380 -90
155 -31 258 -46 505 -73 154 -16 797 -16 950 1 257 28 349 41 547 81 135 27
172 36 338 83 77 22 154 44 170 48 45 13 219 74 310 109 92 36 104 41 165 69
25 11 63 28 85 37 54 24 300 147 350 175 178 100 329 192 345 210 3 3 51 36
108 74 56 37 108 73 115 80 7 6 30 24 52 40 22 17 42 32 45 36 3 3 23 18 45
35 22 16 51 39 65 51 14 12 61 52 105 90 103 88 401 386 489 489 38 44 78 91
90 105 12 14 51 63 86 110 36 47 68 87 71 90 13 11 149 211 149 220 0 4 3 10
8 12 15 6 97 140 212 343 28 49 151 295 175 350 9 22 27 60 38 85 23 50 23 51
68 165 101 260 192 575 250 870 31 154 50 288 71 505 17 164 17 779 1 925 -32
285 -33 292 -68 465 -32 161 -69 323 -85 370 -4 14 -13 45 -20 70 -36 132
-129 406 -160 475 -5 11 -19 45 -31 75 -22 59 -29 76 -96 220 -44 95 -129 265
-166 330 -11 19 -27 48 -35 63 -8 16 -20 31 -27 33 -7 3 -201 -184 -438 -421
l-426 -426 34 -67 c101 -201 181 -425 238 -662 40 -165 83 -427 89 -542 l3
-48 -225 0 c-218 0 -227 -1 -292 -26 -50 -19 -82 -40 -121 -78 -63 -63 -66
-68 -97 -131 -21 -43 -24 -65 -25 -155 0 -98 2 -109 32 -171 41 -84 108 -151
192 -191 l66 -32 235 -4 236 -4 -7 -62 c-7 -57 -11 -85 -40 -261 -12 -74 -79
-344 -105 -423 -26 -79 -85 -246 -94 -267 -4 -11 -17 -41 -29 -67 -12 -26 -21
-50 -21 -53 0 -4 -27 -61 -60 -129 -352 -728 -898 -1312 -1594 -1705 -102 -58
-348 -181 -361 -181 -3 0 -24 -9 -48 -19 -173 -79 -571 -199 -762 -230 -176
-29 -204 -33 -261 -40 l-62 -7 -4 231 c-4 225 -5 231 -32 290 -36 80 -121 165
-200 202 -48 22 -79 28 -149 31 -53 3 -101 -1 -120 -8 -143 -54 -222 -128
-267 -251 -18 -47 -20 -81 -20 -274 l0 -221 -72 8 c-243 25 -559 99 -824 192
-167 58 -433 177 -569 254 -33 19 -80 46 -105 60 -47 26 -295 190 -327 216
-10 8 -58 46 -107 85 -251 199 -484 435 -671 681 -22 29 -44 57 -50 64 -12 13
-126 186 -177 266 -85 136 -184 325 -256 495 -53 124 -137 353 -156 425 -50
188 -79 315 -96 414 -11 67 -25 145 -30 175 -6 30 -10 67 -10 82 l0 27 228 4
227 4 65 30 c107 50 188 144 219 256 8 27 12 80 10 130 -3 68 -10 95 -36 148
-46 94 -123 163 -224 200 -47 18 -80 20 -273 20 l-219 0 6 53 c14 113 43 293
57 352 77 326 145 536 252 775 26 59 120 245 146 290 11 19 35 62 54 95 98
171 227 353 386 545 60 71 371 382 442 442 192 159 374 288 545 386 33 19 76
43 95 54 81 47 351 178 366 178 3 0 24 9 47 19 41 19 125 49 262 96 87 29 212
63 390 105 59 14 239 43 353 57 l52 6 0 -219 c0 -193 2 -226 20 -273 37 -101
106 -178 200 -224 54 -27 79 -33 151 -35 179 -8 313 74 386 236 26 55 27 65
31 286 l4 229 47 -7 c25 -3 73 -10 106 -15 33 -6 89 -15 125 -21 36 -5 83 -14
105 -20 91 -21 163 -40 220 -55 33 -10 74 -21 90 -25 137 -36 402 -143 610
-246 196 -96 238 -120 392 -220 l112 -73 416 415 c228 229 415 419 415 423 0
4 -42 37 -92 74 -51 37 -98 71 -104 76 -10 8 -198 133 -236 156 -14 9 -121 71
-218 128 -45 26 -367 187 -374 187 -3 0 -29 11 -58 24 -203 92 -541 205 -793
265 -302 71 -460 97 -745 121 -122 10 -735 10 -860 0z"/>
<path d="M9234 9471 c-23 -4 -72 -22 -110 -41 -65 -31 -183 -147 -2093 -2057
-1113 -1113 -2028 -2022 -2032 -2021 -6 3 -220 173 -477 381 -54 43 -104 83
-112 90 -8 7 -37 30 -65 52 -27 22 -52 42 -55 45 -3 3 -23 18 -45 35 -22 16
-42 32 -45 35 -3 3 -50 41 -105 85 -103 83 -369 296 -395 318 -9 6 -38 30 -65
52 -28 21 -52 42 -55 45 -3 3 -23 19 -45 36 -43 31 -69 52 -124 99 -94 80
-151 110 -238 126 -174 32 -350 -58 -426 -219 -30 -62 -32 -75 -32 -172 0 -80
4 -113 18 -139 9 -19 17 -38 17 -43 0 -9 43 -71 65 -93 11 -11 203 -168 246
-200 30 -23 121 -96 345 -276 50 -41 109 -87 130 -104 21 -16 97 -77 168 -135
72 -58 143 -114 157 -125 30 -23 127 -100 345 -276 50 -41 109 -87 130 -104
21 -16 97 -77 168 -135 72 -58 143 -114 157 -125 15 -11 59 -46 98 -78 39 -32
96 -69 126 -82 101 -45 240 -42 344 6 36 17 533 508 2219 2193 1196 1194 2186
2189 2201 2211 45 64 71 147 71 224 0 112 -37 197 -120 282 -97 98 -217 134
-366 110z"/>
</g>
</svg>
